<svg id="visual" viewBox="0 0 1280 720" width="1280" height="720" xmlns="http://www.w3.org/2000/svg" xmlns:xlink="http://www.w3.org/1999/xlink" version="1.1"><rect x="0" y="0" width="1280" height="720" fill="#ffffff"></rect><path d="M0 316L30.5 324C61 332 122 348 183 362.5C244 377 305 390 366 388.8C427 387.7 488 372.3 548.8 355.7C609.7 339 670.3 321 731.2 318.3C792 315.7 853 328.3 914 331.3C975 334.3 1036 327.7 1097 339.8C1158 352 1219 383 1249.5 398.5L1280 414L1280 721L1249.5 721C1219 721 1158 721 1097 721C1036 721 975 721 914 721C853 721 792 721 731.2 721C670.3 721 609.7 721 548.8 721C488 721 427 721 366 721C305 721 244 721 183 721C122 721 61 721 30.5 721L0 721Z" fill="#00fff0"></path><path d="M0 443L30.5 441.2C61 439.3 122 435.7 183 426C244 416.3 305 400.7 366 410.8C427 421 488 457 548.8 457.3C609.7 457.7 670.3 422.3 731.2 402.8C792 383.3 853 379.7 914 388.7C975 397.7 1036 419.3 1097 439C1158 458.7 1219 476.3 1249.5 485.2L1280 494L1280 721L1249.5 721C1219 721 1158 721 1097 721C1036 721 975 721 914 721C853 721 792 721 731.2 721C670.3 721 609.7 721 548.8 721C488 721 427 721 366 721C305 721 244 721 183 721C122 721 61 721 30.5 721L0 721Z" fill="#00d6d3"></path><path d="M0 547L30.5 544.3C61 541.7 122 536.3 183 524.7C244 513 305 495 366 497.3C427 499.7 488 522.3 548.8 524.8C609.7 527.3 670.3 509.7 731.2 503.2C792 496.7 853 501.3 914 508C975 514.7 1036 523.3 1097 528.5C1158 533.7 1219 535.3 1249.5 536.2L1280 537L1280 721L1249.5 721C1219 721 1158 721 1097 721C1036 721 975 721 914 721C853 721 792 721 731.2 721C670.3 721 609.7 721 548.8 721C488 721 427 721 366 721C305 721 244 721 183 721C122 721 61 721 30.5 721L0 721Z" fill="#00afb3"></path><path d="M0 585L30.5 586.5C61 588 122 591 183 586.5C244 582 305 570 366 559.8C427 549.7 488 541.3 548.8 542.2C609.7 543 670.3 553 731.2 563.2C792 573.3 853 583.7 914 584.2C975 584.7 1036 575.3 1097 564C1158 552.7 1219 539.3 1249.5 532.7L1280 526L1280 721L1249.5 721C1219 721 1158 721 1097 721C1036 721 975 721 914 721C853 721 792 721 731.2 721C670.3 721 609.7 721 548.8 721C488 721 427 721 366 721C305 721 244 721 183 721C122 721 61 721 30.5 721L0 721Z" fill="#008991"></path><path d="M0 610L30.5 611.8C61 613.7 122 617.3 183 615.7C244 614 305 607 366 607.3C427 607.7 488 615.3 548.8 621.7C609.7 628 670.3 633 731.2 641.5C792 650 853 662 914 667.2C975 672.3 1036 670.7 1097 657.2C1158 643.7 1219 618.3 1249.5 605.7L1280 593L1280 721L1249.5 721C1219 721 1158 721 1097 721C1036 721 975 721 914 721C853 721 792 721 731.2 721C670.3 721 609.7 721 548.8 721C488 721 427 721 366 721C305 721 244 721 183 721C122 721 61 721 30.5 721L0 721Z" fill="#00656f"></path></svg>